<?xml version="1.0" encoding="UTF-8"?>
<svg width="512px" height="512px" viewBox="0 0 512 512" version="1.1" xmlns="http://www.w3.org/2000/svg" xmlns:xlink="http://www.w3.org/1999/xlink">
    <!-- Generator: Sketch 43.2 (39069) - http://www.bohemiancoding.com/sketch -->
    <title>Slice</title>
    <desc>Created with Sketch.</desc>
    <defs></defs>
    <g id="Page-1" stroke="none" stroke-width="1" fill="none" fill-rule="evenodd">
        <rect id="Rectangle" fill="#E1DDD1" x="-1" y="-2" width="512" height="512"></rect>
        <path d="M40.984,21.7886578 L94.8555022,21.7886578 C107.00703,21.7886578 116.458076,24.8602478 123.208924,31.00352 C129.959773,37.1467922 133.335147,46.4965772 133.335147,59.0531556 C133.335147,68.7743775 131.37743,76.7065056 127.461938,82.8497778 C123.546446,88.99305 117.470773,92.9422371 109.234738,94.6974578 L109.234738,95.1025067 C116.525654,96.1826424 121.858745,98.545404 125.234169,102.190862 C128.609593,105.83632 130.702325,111.709471 131.512427,119.810489 C131.782461,122.510828 131.984983,125.447403 132.12,128.620302 C132.255017,131.793201 132.390032,135.337343 132.525049,139.252836 C132.795083,146.948803 133.200128,152.821953 133.740196,156.872462 C134.550297,160.922971 136.305492,163.690778 139.005831,165.175964 L139.005831,166.391111 L107.412018,166.391111 C105.926831,164.365857 104.981726,162.036849 104.576676,159.404018 C104.171625,156.771187 103.901595,154.037134 103.766578,151.201778 L102.95648,123.455929 C102.686446,117.785216 101.268789,113.329723 98.7034667,110.089316 C96.1381442,106.848908 91.8176659,105.228729 85.7419022,105.228729 L70.14752,105.228729 L70.14752,166.391111 L40.984,166.391111 L40.984,21.7886578 Z M70.14752,84.9762844 L82.2989867,84.9762844 C89.3198692,84.9762844 94.720467,83.3223514 98.5009422,80.0144356 C102.281417,76.7065198 104.171627,71.1371532 104.171627,63.3061689 C104.171627,49.9394887 97.4208794,43.2562489 83.9191822,43.2562489 L70.14752,43.2562489 L70.14752,84.9762844 Z M234.394844,21.7886578 L153.587591,21.7886578 L153.587591,166.391111 L236.420089,166.391111 L236.420089,142.493227 L182.751111,142.493227 L182.751111,103.608533 L231.356978,103.608533 L231.356978,79.7106489 L182.751111,79.7106489 L182.751111,45.6865422 L234.394844,45.6865422 L234.394844,21.7886578 Z M311.354133,111.912036 L297.379947,46.9016889 L296.974898,46.9016889 L283.000711,111.912036 L311.354133,111.912036 Z M315.202098,21.7886578 L353.479218,166.391111 L323.100551,166.391111 L316.417244,135.80992 L277.9376,135.80992 L271.254293,166.391111 L240.875627,166.391111 L279.152747,21.7886578 L315.202098,21.7886578 Z M394.186631,144.92352 L407.148196,144.92352 C412.27884,144.92352 416.396796,144.045923 419.502187,142.290702 C422.607577,140.535482 425.0716,137.63266 426.894329,133.582151 C428.717058,129.531642 429.932193,124.198552 430.539769,117.58272 C431.147345,110.966888 431.451129,102.730977 431.451129,92.8747378 C431.451129,84.6387025 431.181099,77.4154029 430.641031,71.2046222 C430.100963,64.9938415 428.98709,59.8295198 427.299378,55.7115022 C425.611666,51.5934846 423.113889,48.4881408 419.805973,46.3953778 C416.498058,44.3026147 412.076318,43.2562489 406.540622,43.2562489 L394.186631,43.2562489 L394.186631,144.92352 Z M365.023111,21.7886578 L412.81888,21.7886578 C422.945153,21.7886578 431.113557,23.4425909 437.324338,26.7505067 C443.535118,30.0584225 448.361903,34.7839456 451.804836,40.9272178 C455.247768,47.07049 457.576776,54.4625583 458.791929,63.1036444 C460.007082,71.7447306 460.614649,81.3982993 460.614649,92.06464 C460.614649,104.756235 459.838313,115.793707 458.285618,125.177387 C456.732923,134.561066 454.066377,142.290672 450.285902,148.366436 C446.505427,154.442199 441.442367,158.9652 435.096569,161.935573 C428.750771,164.905947 420.717382,166.391111 410.99616,166.391111 L365.023111,166.391111 L365.023111,21.7886578 Z" id="READ" fill="#76B19D"></path>
        <path d="M101.336284,268.925369 L87.3620978,203.915022 L86.9570489,203.915022 L72.9828622,268.925369 L101.336284,268.925369 Z M105.184249,178.801991 L143.461369,323.404444 L113.082702,323.404444 L106.399396,292.823253 L67.9197511,292.823253 L61.2364444,323.404444 L30.8577778,323.404444 L69.1348978,178.801991 L105.184249,178.801991 Z M182.751111,301.936853 L194.09248,301.936853 C201.113363,301.936853 206.78399,300.384181 211.104533,297.278791 C215.425076,294.173401 217.585316,288.435266 217.585316,280.064213 C217.585316,275.878687 217.011502,272.402052 215.863858,269.634204 C214.716214,266.866357 213.163542,264.63861 211.205796,262.950898 C209.248049,261.263186 206.919042,260.081805 204.218702,259.40672 C201.518363,258.731635 198.548034,258.394098 195.307627,258.394098 L182.751111,258.394098 L182.751111,301.936853 Z M182.751111,238.141653 L191.054613,238.141653 C199.155632,238.141653 205.062536,236.690243 208.775502,233.787378 C212.488469,230.884513 214.344924,225.990221 214.344924,219.104356 C214.344924,212.21849 212.657238,207.357952 209.281813,204.522596 C205.906389,201.687239 200.573299,200.269582 193.282382,200.269582 L182.751111,200.269582 L182.751111,238.141653 Z M153.587591,178.801991 L202.395982,178.801991 C208.336729,178.801991 213.838588,179.409558 218.901724,180.624711 C223.964861,181.839864 228.319093,183.865088 231.964551,186.700444 C235.610009,189.535801 238.445323,193.316219 240.470578,198.041813 C242.495832,202.767407 243.508444,208.57305 243.508444,215.458916 C243.508444,223.2899 241.685743,230.006893 238.040284,235.610098 C234.394826,241.213302 228.926721,245.027474 221.635804,247.052729 L221.635804,247.457778 C229.736823,248.537914 236.150033,251.980795 240.875627,257.786524 C245.601221,263.592254 247.963982,271.355614 247.963982,281.076836 C247.963982,286.747548 247.2214,292.148146 245.736213,297.278791 C244.251027,302.409436 241.719496,306.898683 238.141547,310.746667 C234.563597,314.59465 229.905581,317.66624 224.16736,319.961529 C218.429139,322.256817 211.3071,323.404444 202.801031,323.404444 L153.587591,323.404444 L153.587591,178.801991 Z M267.608853,323.404444 L296.772373,323.404444 L296.772373,178.801991 L267.608853,178.801991 L267.608853,323.404444 Z M318.442489,323.404444 L399.249742,323.404444 L399.249742,299.50656 L347.606009,299.50656 L347.606009,178.801991 L318.442489,178.801991 L318.442489,323.404444 Z M468.108053,252.925938 L410.99616,252.925938 L410.99616,276.823822 L468.108053,276.823822 L468.108053,252.925938 Z" id="ABIL-" fill="#000000"></path>
        <path d="M42.4016711,482.693333 L71.5651911,482.693333 L71.5651911,338.09088 L42.4016711,338.09088 L42.4016711,482.693333 Z M177.890524,338.09088 L85.5393778,338.09088 L85.5393778,361.988764 L117.133191,361.988764 L117.133191,482.693333 L146.296711,482.693333 L146.296711,361.988764 L177.890524,361.988764 L177.890524,338.09088 Z M213.737351,338.09088 L180.928391,338.09088 L218.395413,425.783964 L218.395413,482.693333 L247.558933,482.693333 L247.558933,425.783964 L285.025956,338.09088 L253.432142,338.09088 L233.179698,393.987627 L232.774649,393.987627 L213.737351,338.09088 Z" id="ITY" fill="#000000"></path>
        <rect id="Rectangle" fill="#ACC8B9" x="315.302222" y="337.057778" width="154.737778" height="145.635556"></rect>
    </g>
</svg>