<?xml version="1.0" encoding="UTF-8"?>
<svg id="Layer_1" data-name="Layer 1" xmlns="http://www.w3.org/2000/svg" viewBox="0 0 544.22 544.22">
  <path style="fill: #6548d8;" d="m367.69,224.26c-26.44.1-47.77,21.53-47.72,47.95.05,26.42,21.56,47.85,47.92,47.73,26.3-.12,47.68-21.59,47.64-47.83-.04-26.43-21.55-47.95-47.84-47.85Z"/>
  <path style="fill: #6548d8;" d="m176.56,224.26c-26.22-.04-47.73,21.36-47.86,47.63-.13,26.36,21.27,47.94,47.64,48.05,26.37.11,47.82-21.26,47.92-47.73.1-26.39-21.3-47.91-47.7-47.95Z"/>
  <path style="fill: #6548d8;" d="m272.11,0C2.1,0,0,121.83,0,272.11s2.1,272.11,272.11,272.11,272.11-121.83,272.11-272.11S542.12,0,272.11,0Zm182.4,272.07c-1.34.04-2.69,0-4.19,0-1.9.23-4.69-.9-5.82.45-1.08,1.29-.42,3.99-.63,6.06-2.54,25.43-14.61,45.16-36.21,58.67-44.11,27.58-103.28,2.55-114.51-48.22-.97-4.38-1.69-8.8-1.76-13.29-.02-1.24-.49-1.86-1.56-2.37-11.79-5.63-23.56-5.64-35.36-.03-1.14.54-1.59,1.21-1.64,2.54-1.44,35.44-28.3,65.74-63.37,71.55-39.5,6.54-76.51-17.28-86.96-56-1.52-5.64-2.36-11.4-2.4-17.24-.01-1.81-.58-2.15-2.25-2.14-3.57,0-7.16.36-10.73-.29-9.76-1.79-16.47-10.44-15.74-20.3.72-9.67,8.65-17.25,18.54-17.51,6.12-.16,12.25-.09,18.37-.03,1.32.01,2.13-.31,2.88-1.5,12.51-19.97,30.39-32.19,53.64-35.87,31.16-4.94,61.68,9.59,77.7,37.04,1.2,2.05,2.1,2.44,4.36,1.64,17.18-6.05,34.39-5.82,51.5.29,1.82.65,2.23-.08,2.95-1.33,9-15.52,21.83-26.67,38.5-33.31,33.55-13.35,72.57-.82,91.99,29.62,1.64,2.58,3.25,3.62,6.33,3.47,5.51-.28,11.05-.19,16.57,0,10.26.34,18.28,8.9,18.19,19.22-.09,10.13-8.27,18.55-18.38,18.88Z"/>
</svg>